<?xml version="1.0" standalone="no"?>
<!DOCTYPE svg PUBLIC "-//W3C//DTD SVG 20010904//EN"
 "http://www.w3.org/TR/2001/REC-SVG-20010904/DTD/svg10.dtd">
<svg version="1.0" xmlns="http://www.w3.org/2000/svg"
 width="512.000000pt" height="512.000000pt" viewBox="0 0 512.000000 512.000000"
 preserveAspectRatio="xMidYMid meet">

<g transform="translate(0.000000,512.000000) scale(0.100000,-0.100000)"
fill="#000000" stroke="none">
<path d="M2405 5114 c-16 -2 -70 -9 -120 -15 -215 -26 -431 -92 -650 -199
-422 -205 -750 -531 -963 -956 -220 -441 -279 -963 -162 -1442 161 -659 630
-1204 1255 -1458 l80 -32 3 -240 c3 -300 -14 -276 193 -280 l149 -4 0 -224 c0
-211 1 -225 20 -244 19 -19 33 -20 398 -20 l379 0 21 23 c21 22 22 31 22 245
l0 222 129 0 c143 0 183 9 200 46 7 16 11 108 11 267 l1 242 97 45 c225 105
403 230 588 414 325 324 520 707 601 1176 25 147 25 523 0 660 -118 636 -461
1145 -988 1466 -328 199 -675 301 -1059 309 -96 2 -188 2 -205 -1z m351 -145
c677 -66 1274 -480 1584 -1098 72 -144 142 -362 177 -551 21 -119 25 -483 5
-605 -145 -879 -812 -1541 -1683 -1669 -140 -21 -408 -21 -548 0 -342 50 -647
178 -926 387 -102 76 -293 268 -372 373 -491 648 -538 1515 -120 2214 387 648
1130 1023 1883 949z m474 -4154 l0 -175 -620 0 -620 0 0 161 0 162 28 -6 c15
-3 70 -15 122 -26 206 -44 487 -54 700 -26 103 14 346 68 358 80 3 3 11 5 19
5 10 0 13 -36 13 -175z m-340 -500 l0 -175 -280 0 -280 0 0 175 0 175 280 0
280 0 0 -175z"/>
<path d="M2425 4800 c-430 -32 -838 -222 -1142 -531 -274 -279 -442 -616 -504
-1009 -17 -107 -17 -408 0 -515 63 -397 238 -743 519 -1022 804 -799 2143
-663 2767 282 153 232 242 465 286 745 19 120 16 410 -5 535 -67 398 -248 742
-535 1017 -308 295 -695 467 -1120 498 -69 5 -135 9 -146 8 -11 0 -65 -4 -120
-8z m370 -151 c603 -81 1123 -502 1331 -1076 71 -197 98 -354 98 -573 -1 -161
-12 -259 -45 -395 -130 -529 -523 -972 -1029 -1159 -987 -365 -2055 253 -2227
1289 -20 122 -23 395 -4 510 125 788 761 1369 1551 1419 77 4 230 -3 325 -15z"/>
<path d="M2538 4639 c-16 -9 -18 -30 -18 -207 0 -208 3 -222 45 -222 42 0 45
14 45 216 0 162 -3 195 -16 208 -18 18 -32 20 -56 5z"/>
<path d="M1400 4151 c-5 -11 -10 -23 -10 -27 0 -4 59 -67 132 -141 131 -132
158 -149 186 -121 27 27 9 54 -115 180 -102 103 -132 128 -155 128 -17 0 -31
-7 -38 -19z"/>
<path d="M3532 4037 c-73 -74 -132 -138 -132 -143 0 -19 32 -54 49 -54 16 0
291 268 291 284 0 24 -24 46 -48 46 -23 0 -54 -26 -160 -133z"/>
<path d="M2777 3643 c-16 -16 -39 -83 -111 -323 l-26 -85 -73 0 c-64 0 -80 -4
-122 -30 -92 -57 -134 -166 -105 -271 l13 -46 -286 -287 c-206 -206 -287 -293
-287 -309 0 -13 11 -34 25 -47 51 -52 55 -49 366 261 l288 287 30 -12 c43 -18
124 -15 173 7 87 38 145 139 135 235 l-5 54 206 47 c242 55 248 58 238 143
-24 203 -183 363 -386 388 -46 5 -58 3 -73 -12z m173 -163 c63 -32 120 -100
135 -162 5 -20 3 -27 -12 -32 -37 -11 -287 -66 -289 -63 -1 2 69 243 81 275 6
15 29 10 85 -18z m-340 -395 c56 -29 67 -93 24 -144 -21 -26 -33 -31 -69 -31
-36 0 -48 5 -69 31 -42 50 -32 114 22 143 35 19 56 20 92 1z"/>
<path d="M936 3034 c-19 -18 -21 -45 -4 -62 17 -17 399 -17 416 0 17 17 15 44
-4 62 -13 13 -46 16 -204 16 -158 0 -191 -3 -204 -16z"/>
<path d="M3788 3039 c-21 -12 -24 -49 -6 -67 17 -17 399 -17 416 0 17 17 15
44 -4 62 -13 13 -45 16 -202 16 -108 0 -194 -5 -204 -11z"/>
<path d="M1523 2028 c-132 -131 -149 -158 -121 -186 28 -28 55 -10 186 121
135 136 153 165 113 187 -11 5 -25 10 -32 10 -7 0 -72 -59 -146 -132z"/>
<path d="M3422 2148 c-28 -28 -10 -55 126 -191 75 -75 145 -137 154 -137 26 0
52 44 40 67 -6 10 -69 75 -140 146 -126 124 -153 142 -180 115z"/>
<path d="M2538 1789 c-16 -9 -18 -30 -18 -207 0 -208 3 -222 45 -222 42 0 45
14 45 216 0 162 -3 195 -16 208 -18 18 -32 20 -56 5z"/>
</g>
</svg>
